<svg width="720" height="360" viewBox="0 0 720 360" fill="none" xmlns="http://www.w3.org/2000/svg" role="img" aria-labelledby="title desc">
  <title id="title">PDQ checkout segmentation illustration</title>
  <desc id="desc">Illustration showing a shopper profile with highlighted checkout experiment and dynamic delivery options.</desc>
  <rect width="720" height="360" rx="32" fill="#5C2EF2" />
  <g filter="url(#filter0_d)">
    <rect x="46" y="46" width="180" height="268" rx="24" fill="#401AAC" />
    <rect x="62" y="86" width="148" height="24" rx="12" fill="#FFB800" opacity="0.8" />
    <rect x="62" y="126" width="128" height="22" rx="11" fill="#FF6600" opacity="0.75" />
    <rect x="62" y="166" width="136" height="22" rx="11" fill="#00B86B" opacity="0.7" />
    <rect x="62" y="206" width="112" height="22" rx="11" fill="#EDEAFF" opacity="0.9" />
    <rect x="62" y="246" width="128" height="22" rx="11" fill="#FFB800" opacity="0.7" />
    <circle cx="136" cy="70" r="36" fill="#FFB800" />
    <path d="M136 46c19.882 0 36 16.118 36 36s-16.118 36-36 36-36-16.118-36-36 16.118-36 36-36Zm0 18c-9.941 0-18 8.059-18 18s8.059 18 18 18 18-8.059 18-18-8.059-18-18-18Z" fill="#1A1A1A" opacity="0.25" />
  </g>
  <g filter="url(#filter1_d)">
    <rect x="262" y="60" width="384" height="240" rx="28" fill="#EFE9FF" />
    <rect x="292" y="90" width="200" height="26" rx="13" fill="#5C2EF2" opacity="0.18" />
    <rect x="292" y="126" width="328" height="20" rx="10" fill="#5C2EF2" opacity="0.1" />
    <rect x="292" y="156" width="328" height="20" rx="10" fill="#5C2EF2" opacity="0.1" />
    <rect x="292" y="186" width="164" height="20" rx="10" fill="#5C2EF2" opacity="0.1" />
    <g filter="url(#filter2_d)">
      <rect x="292" y="216" width="318" height="66" rx="18" fill="#FFFFFF" />
      <rect x="312" y="234" width="124" height="14" rx="7" fill="#FFB800" opacity="0.8" />
      <rect x="312" y="254" width="184" height="12" rx="6" fill="#5C2EF2" opacity="0.1" />
      <rect x="512" y="234" width="78" height="26" rx="13" fill="#5C2EF2" opacity="0.16" />
    </g>
  </g>
  <defs>
    <filter id="filter0_d" x="26" y="26" width="220" height="308" filterUnits="userSpaceOnUse" color-interpolation-filters="sRGB">
      <feFlood flood-opacity="0" result="BackgroundImageFix" />
      <feGaussianBlur in="BackgroundImageFix" stdDeviation="10" />
      <feComposite in2="SourceAlpha" operator="in" result="effect1_backgroundBlur" />
      <feBlend mode="normal" in="SourceGraphic" in2="effect1_backgroundBlur" result="shape" />
    </filter>
    <filter id="filter1_d" x="230" y="28" width="448" height="304" filterUnits="userSpaceOnUse" color-interpolation-filters="sRGB">
      <feFlood flood-opacity="0" result="BackgroundImageFix" />
      <feGaussianBlur in="BackgroundImageFix" stdDeviation="16" />
      <feComposite in2="SourceAlpha" operator="in" result="effect1_backgroundBlur" />
      <feBlend mode="normal" in="SourceGraphic" in2="effect1_backgroundBlur" result="shape" />
    </filter>
    <filter id="filter2_d" x="276" y="204" width="350" height="98" filterUnits="userSpaceOnUse" color-interpolation-filters="sRGB">
      <feFlood flood-opacity="0" result="BackgroundImageFix" />
      <feGaussianBlur in="BackgroundImageFix" stdDeviation="8" />
      <feComposite in2="SourceAlpha" operator="in" result="effect1_backgroundBlur" />
      <feBlend mode="normal" in="SourceGraphic" in2="effect1_backgroundBlur" result="shape" />
    </filter>
  </defs>
</svg>
